
<svg fill="#000000" width="800px" height="800px" viewBox="0 0 270.92 270.92" style="shape-rendering:geometricPrecision; text-rendering:geometricPrecision; image-rendering:optimizeQuality; fill-rule:evenodd; clip-rule:evenodd" version="1.1" xml:space="preserve" xmlns="http://www.w3.org/2000/svg" xmlns:xlink="http://www.w3.org/1999/xlink">

<defs>

<style type="text/css">
   <![CDATA[
    .fil0 {fill:black;fill-rule:nonzero}
   ]]>
  </style>

</defs>

<g id="Layer_x0020_1">

<path class="fil0" d="M202.48 217.14c0,7.48 -6.07,13.54 -13.54,13.54l-106.95 0c-7.47,0 -13.54,-6.06 -13.54,-13.54l0 -163.37c0,-7.47 6.07,-13.54 13.54,-13.54l84.29 0c1.93,0 3.74,0.75 5.1,2.11l29.01 29.13c1.35,1.36 2.09,3.17 2.09,5.08l0 140.59zm-30.43 -45.72l0 -44.7c0,-1.95 -1.58,-3.53 -3.53,-3.53 -1.95,0 -3.52,1.58 -3.52,3.53l0 44.7c0,1.94 1.57,3.53 3.52,3.53 1.95,0 3.53,-1.59 3.53,-3.53zm-22.13 3.53c1.95,0 3.53,-1.59 3.53,-3.53l0 -31.65c0,-1.95 -1.58,-3.52 -3.53,-3.52 -1.95,0 -3.53,1.57 -3.53,3.52l0 31.65c0,1.94 1.58,3.53 3.53,3.53zm-17.65 0c1.95,0 3.53,-1.59 3.53,-3.53l0 -55.4c0,-1.95 -1.58,-3.52 -3.53,-3.52 -1.95,0 -3.53,1.57 -3.53,3.52l0 55.4c0,1.94 1.58,3.53 3.53,3.53zm-18.29 0c1.95,0 3.53,-1.59 3.53,-3.53l0 -35.49c0,-1.95 -1.58,-3.52 -3.53,-3.52 -1.94,0 -3.53,1.57 -3.53,3.52l0 35.49c0,1.94 1.59,3.53 3.53,3.53zm68.22 11.83l-85.09 0 0 -85.09c0,-1.95 -1.59,-3.53 -3.53,-3.53 -1.96,0 -3.53,1.58 -3.53,3.53l0 88.61c0,1.95 1.57,3.53 3.53,3.53l88.62 0c1.93,0 3.52,-1.58 3.52,-3.53 0,-1.95 -1.59,-3.52 -3.52,-3.52zm10.22 -114.23l-22.14 0 0 -23.3c0,-1.96 -1.59,-3.53 -3.53,-3.53 -1.95,0 -3.52,1.57 -3.52,3.53l0 26.82c0,1.95 1.57,3.53 3.52,3.53l25.67 0c1.95,0 3.53,-1.58 3.53,-3.53 0,-1.95 -1.58,-3.52 -3.53,-3.52zm12.97 -6.05l-29.01 -29.14c-2.69,-2.7 -6.28,-4.18 -10.1,-4.18l-84.29 0c-11.35,0 -20.59,9.24 -20.59,20.59l0 163.37c0,11.36 9.24,20.6 20.59,20.6l106.95 0c11.36,0 20.59,-9.24 20.59,-20.6l0 -140.59c0,-3.78 -1.47,-7.37 -4.14,-10.05z"/>

</g>

</svg>